PathFileType	4	(x/y/z)	S10_M20_T34
DataRate	CameraRate	NumFrames	NumMarkers	Units	OrigDataRate	OrigDataStartFrame	OrigNumFrames
240	240	4	51	mm	240	1	534
Frame#	Time	Sternum			R.Acromium			L.Acromium			Top.Head			R.ASIS			L.ASIS			R.PSIS			L.PSIS			R.Great.Tro			L.Great.Tro			R.Iliac.Crest			L.Iliac.Crest			V.Sacral			R.Thigh.Upper.Post			R.Thigh.Lower.Ant			R.Thigh.Lower.Post			R.Thigh.Upper.Ant			R.Knee.Lat			R.Knee.Med			R.Shank.Upper.Post			R.Shank.Lower.Ant			R.Shank.Lower.Post			R.Shank.Upper.Ant			R.Ankle.Lat			R.Ankle.Med			R.Heel.Upper			R.Heel.Med			R.Heel.Lat			R.Toe.Lat			R.Toe.Med			R.Toe.Tip			L.Thigh.Upper.Post			L.Thigh.Lower.Ant			L.Thigh.Lower.Post			L.Thigh.Upper.Ant			L.Knee.Lat			L.Knee.Med			L.Shank.Upper.Post			L.Shank.Lower.Ant			L.Shank.Lower.Post			L.Shank.Upper.Ant			L.Ankle.Lat			L.Ankle.Med			L.Heel.Upper			L.Heel.Med			L.Heel.Lat			L.Toe.Lat			L.Toe.Med			L.Toe.Tip			Cervical.Spine			Back			
		X1	Y1	Z1	X2	Y2	Z2	X3	Y3	Z3	X4	Y4	Z4	X5	Y5	Z5	X6	Y6	Z6	X7	Y7	Z7	X8	Y8	Z8	X9	Y9	Z9	X10	Y10	Z10	X11	Y11	Z11	X12	Y12	Z12	X13	Y13	Z13	X14	Y14	Z14	X15	Y15	Z15	X16	Y16	Z16	X17	Y17	Z17	X18	Y18	Z18	X19	Y19	Z19	X20	Y20	Z20	X21	Y21	Z21	X22	Y22	Z22	X23	Y23	Z23	X24	Y24	Z24	X25	Y25	Z25	X26	Y26	Z26	X27	Y27	Z27	X28	Y28	Z28	X29	Y29	Z29	X30	Y30	Z30	X31	Y31	Z31	X32	Y32	Z32	X33	Y33	Z33	X34	Y34	Z34	X35	Y35	Z35	X36	Y36	Z36	X37	Y37	Z37	X38	Y38	Z38	X39	Y39	Z39	X40	Y40	Z40	X41	Y41	Z41	X42	Y42	Z42	X43	Y43	Z43	X44	Y44	Z44	X45	Y45	Z45	X46	Y46	Z46	X47	Y47	Z47	X48	Y48	Z48	X49	Y49	Z49	X50	Y50	Z50	X51	Y51	Z51	

1	0	-825.34	1236.1	307.75	-921.17	1400.5	466.67	-974.9	1411.1	163.77	-986.09	1708.3	339.3	-878.54	964.5	435.55	-884.45	983.71	205.16	-1079.8	994.25	349.46	NaN	NaN	NaN	-964.8	894.37	512.1	-939.67	922.31	144.26	-970.59	1050.4	482.66	-954.15	1060.2	180.86	-1101.9	964.29	315.17	-1027.3	695.92	501.63	-1008.9	605.93	459.78	-1070	618.44	487.43	-963.03	684.14	468.97	-1131.5	505.94	450.34	-1148.9	521.23	321.73	-1273.9	318.19	451.39	-1237.6	238.21	429.55	-1298.8	248.64	442.26	-1206.5	308.75	437.13	-1323.3	139.23	416.68	-1319.5	149.55	339.69	-1400.8	104.98	376.89	-1396.9	75.217	349.66	-1398.6	82.317	410.96	-1229.2	41.531	446.57	-1205.2	40.982	336.68	-1142.9	45.25	375.38	-887.44	648.48	136.74	-787.81	600.72	149.52	-851.33	561.12	153.16	-815.4	685.93	131.54	-780.46	501.18	156.63	-762.27	496.8	287.59	-725.97	283.5	158.13	-618.89	248.95	160.86	-675.88	222.5	161.66	-662.55	312.1	151.68	-571.8	132.82	167.03	-564.19	156.25	249.22	-602.71	68.635	214.26	-574.33	52.325	247.5	-579.01	47.719	183.68	-434.03	146.34	139.35	NaN	NaN	NaN	-386.5	217.91	193.89	-1018.3	1461.2	337.08	-1108.5	1254.2	340.8
2	0.0041667	-819.97	1235.1	307.15	-915.68	1399.6	465.93	-969.54	1410	163.06	-981.14	1707.3	338.58	-873.08	963.61	435.05	-878.83	982.95	204.64	-1074.3	993.31	348.92	NaN	NaN	NaN	-959.52	893.49	511.54	-934.06	921.69	143.76	-965.2	1049.4	482.14	-948.69	1059.3	180.21	-1096.4	963.35	314.61	-1022.6	695.36	501.24	-1004.5	605.14	459.18	-1065.6	617.96	486.95	-958.34	683.29	468.62	-1127.5	505.71	449.95	-1143.9	520.67	321.51	-1271.6	319.08	451.17	-1235.6	238.74	429.57	-1296.8	249.72	442.23	-1204	309	436.88	-1322	140.44	416.82	-1317.4	150.21	339.62	-1399.9	106.71	376.99	-1396.2	77.011	349.71	-1398	83.99	411.03	-1229	41.6	446.61	-1204.9	41.067	336.78	-1142.8	45.13	375.41	-881.33	647.95	136.43	-781.54	600.31	149.52	-845.11	560.6	153.03	-809.24	685.35	131.36	-774.12	500.71	156.72	-756.42	496.36	287.68	-720.56	282.97	157.67	-613.67	247.78	160.75	-671.35	221.43	161.59	-657.31	310.87	151.92	-567.92	131.14	167.24	-560.7	154.21	249.56	-599.68	67.18	214.14	-571.27	50.62	247.54	-575.8	46.161	183.7	-430.05	143.86	140.17	NaN	NaN	NaN	-382.3	215.07	195	-1013	1460.3	336.36	-1103.1	1253.3	340.29
3	0.0083333	-814.37	1234	306.52	-909.96	1398.8	465.15	-963.95	1408.9	162.32	-975.99	1706.3	337.82	-867.36	962.68	434.52	-872.95	982.17	204.1	-1068.5	992.34	348.36	NaN	NaN	NaN	-954.01	892.57	510.96	-928.2	921.06	143.22	-959.56	1048.4	481.6	-943	1058.4	179.53	-1090.7	962.38	314.02	-1017.7	694.78	500.83	-999.83	604.31	458.57	-1060.9	617.46	486.44	-953.43	682.41	468.25	-1123.4	505.47	449.53	-1138.7	520.07	321.25	-1269.1	320.02	450.93	-1233.5	239.29	429.59	-1294.7	250.84	442.18	-1201.3	309.26	436.63	-1320.7	141.72	416.96	-1315.3	150.94	339.55	-1398.8	108.54	377.08	-1395.5	78.907	349.76	-1397.4	85.765	411.11	-1228.7	41.673	446.66	-1204.6	41.147	336.88	-1142.6	45.009	375.44	-874.95	647.4	136.11	-775.01	599.87	149.53	-838.62	560.07	152.9	-802.81	684.76	131.19	-767.51	500.22	156.82	-750.32	495.91	287.78	-714.96	282.41	157.21	-608.3	246.54	160.68	-666.65	220.31	161.51	-651.87	309.59	152.18	-563.93	129.41	167.45	-557.1	152.08	249.93	-596.58	65.742	214.04	-568.2	48.895	247.57	-572.56	44.6	183.73	-425.97	141.21	141	NaN	NaN	NaN	-377.93	211.99	196.15	-1007.4	1459.3	335.6	-1097.5	1252.3	339.76
4	0.0125	-808.56	1233	305.86	-904.03	1397.8	464.34	-958.17	1407.8	161.55	-970.65	1705.3	337.04	-861.42	961.72	433.97	-866.83	981.39	203.53	-1062.5	991.34	347.79	NaN	NaN	NaN	-948.27	891.61	510.36	-922.1	920.41	142.66	-953.7	1047.4	481.03	-937.1	1057.4	178.82	-1084.7	961.38	313.4	-1012.7	694.17	500.41	-994.98	603.47	457.95	-1056.1	616.94	485.9	-948.32	681.5	467.85	-1119	505.21	449.08	-1133.3	519.46	320.95	-1266.5	320.99	450.69	-1231.3	239.88	429.61	-1292.5	252	442.14	-1198.5	309.53	436.37	-1319.3	143.05	417.11	-1313.1	151.74	339.5	-1397.7	110.46	377.18	-1394.7	80.901	349.81	-1396.8	87.638	411.19	-1228.5	41.748	446.7	-1204.3	41.222	337	-1142.4	44.887	375.47	-868.33	646.84	135.79	-768.27	599.42	149.55	-831.91	559.53	152.78	-796.16	684.16	131.03	-760.69	499.72	156.94	-744.01	495.46	287.88	-709.22	281.83	156.76	-602.83	245.23	160.66	-661.83	219.15	161.44	-646.28	308.27	152.48	-559.86	127.64	167.68	-553.42	149.86	250.31	-593.46	64.349	213.94	-565.14	47.172	247.61	-569.36	43.059	183.76	-421.84	138.37	141.85	NaN	NaN	NaN	-373.45	208.66	197.32	-1001.6	1458.3	334.81	-1091.6	1251.3	339.21
